<svg aria-hidden="true" style="position: absolute; width: 0; height: 0; overflow: hidden;" version="1.1" xmlns="http://www.w3.org/2000/svg" xmlns:xlink="http://www.w3.org/1999/xlink">
<defs>
<symbol id="icon-location" viewBox="0 0 32 32">
<path d="M11.163 11.554c0-2.655 2.166-4.807 4.837-4.807s4.837 2.152 4.837 4.807-2.166 4.806-4.837 4.806-4.837-2.152-4.837-4.806zM7.777 12.154c0 2.011 2.454 6.25 2.454 6.25l5.769 9.614 5.438-9.613c0 0 2.785-4.27 2.785-6.25 0-4.513-3.682-8.171-8.223-8.171s-8.223 3.657-8.223 8.17z"></path>
</symbol>
<symbol id="icon-direction" viewBox="0 0 32 32">
<path d="M17.987 3h-5v3h5v-3zM17.987 15v-2h-5v2h5zM12.987 30h5v-8h-5v8zM24.987 12l-2.187-2.5 2.187-2.5h-16l-2.6 2.5 2.6 2.5h16zM22.987 16h-16l2.188 2.5-2.188 2.5h16l2.625-2.5-2.625-2.5z"></path>
</symbol>
<symbol id="icon-magnifier" viewBox="0 0 32 32">
<path d="M29.156 29.961l-0.709 0.709c-0.785 0.784-2.055 0.784-2.838 0l-5.676-5.674c-0.656-0.658-0.729-1.644-0.281-2.412l-3.104-3.102c-1.669 1.238-3.728 1.979-5.965 1.979-5.54 0-10.031-4.491-10.031-10.031s4.491-10.032 10.031-10.032c5.541 0 10.031 4.491 10.031 10.032 0 2.579-0.98 4.923-2.58 6.7l3.035 3.035c0.768-0.447 1.754-0.375 2.41 0.283l5.676 5.674c0.784 0.785 0.784 2.056 0.001 2.839zM18.088 11.389c0-4.155-3.369-7.523-7.524-7.523s-7.524 3.367-7.524 7.523 3.368 7.523 7.523 7.523 7.525-3.368 7.525-7.523z"></path>
</symbol>
<symbol id="icon-diamond" viewBox="0 0 32 32">
<path d="M2.103 12.052l13.398 16.629-5.373-16.629h-8.025zM11.584 12.052l4.745 16.663 4.083-16.663h-8.828zM17.051 28.681l12.898-16.629h-7.963l-4.935 16.629zM29.979 10.964l-3.867-6.612-3.869 6.612h7.736zM24.896 3.973h-7.736l3.867 6.839 3.869-6.839zM19.838 10.964l-3.867-6.612-3.868 6.612h7.735zM14.839 3.973h-7.735l3.868 6.839 3.867-6.839zM5.889 4.352l-3.867 6.612h7.735l-3.868-6.612z"></path>
</symbol>
<symbol id="icon-comments" viewBox="0 0 34 32">
<path d="M25.132 13.165c0-5.165-5.627-9.352-12.566-9.352s-12.566 4.187-12.566 9.352c0 3.104 2.032 5.854 5.16 7.555-0.009 0.027-2.492 4.545-2.492 4.545s7.582-2.892 7.603-2.904c0.744 0.103 1.511 0.155 2.295 0.155 6.939 0 12.566-4.187 12.566-9.351zM34.385 16.087c0-5.164-5.297-9.314-11.031-9.351 8.22 8.188-1.461 16.912-9.351 16.912 0 0 0.877 1.79 7.816 1.79 0.783 0 1.551-0.054 2.295-0.156 0.021 0.014 7.604 2.904 7.604 2.904s-2.484-4.517-2.492-4.544c3.127-1.701 5.159-4.452 5.159-7.555z"></path>
</symbol>
<symbol id="icon-bookmark" viewBox="0 0 32 32">
<path d="M15.476 19.461l-8.451 8.501v-22.924h16.951v22.924l-8.5-8.501z"></path>
</symbol>
<symbol id="icon-plane" viewBox="0 0 32 32">
<path d="M15.521 3.91c0.828 0 1.5 0.672 1.5 1.5v7.75l10 6.25v2.688l-10-3.375v5.25l2.039 2.029-0.001 2.084-3.538-1.176-3.487 1.18 0.015-2.189 1.91-1.865 0.017-5.312-9.997 3.436 0.021-2.75 10.007-6.313 0.016-7.688c-0.002-0.827 0.67-1.499 1.498-1.499z"></path>
</symbol>
<symbol id="icon-globe" viewBox="0 0 32 32">
<path d="M22.658 10.988h5.172c0.693 1.541 1.107 3.229 1.178 5.012h-5.934c-0.025-1.884-0.181-3.544-0.416-5.012zM20.398 3.896c2.967 1.153 5.402 3.335 6.928 6.090h-4.836c-0.549-2.805-1.383-4.799-2.092-6.090zM16.068 9.986v-6.996c1.066 0.047 2.102 0.216 3.092 0.493 0.75 1.263 1.719 3.372 2.33 6.503h-5.422zM9.489 22.014c-0.234-1.469-0.396-3.119-0.421-5.012h5.998v5.012h-5.577zM9.479 10.988h5.587v5.012h-6.004c0.025-1.886 0.183-3.543 0.417-5.012zM11.988 3.461c0.987-0.266 2.015-0.435 3.078-0.469v6.994h-5.422c0.615-3.148 1.591-5.265 2.344-6.525zM3.661 9.986c1.551-2.8 4.062-4.993 7.096-6.131-0.715 1.29-1.559 3.295-2.114 6.131h-4.982zM8.060 16h-6.060c0.066-1.781 0.467-3.474 1.158-5.012h5.316c-0.233 1.469-0.39 3.128-0.414 5.012zM8.487 22.014h-5.29c-0.694-1.543-1.139-3.224-1.204-5.012h6.071c0.024 1.893 0.188 3.541 0.423 5.012zM8.651 23.016c0.559 2.864 1.416 4.867 2.134 6.142-3.045-1.133-5.557-3.335-7.11-6.142h4.976zM15.066 23.016v6.994c-1.052-0.033-2.067-0.199-3.045-0.46-0.755-1.236-1.736-3.363-2.356-6.534h5.401zM21.471 23.016c-0.617 3.152-1.592 5.271-2.344 6.512-0.979 0.271-2.006 0.418-3.059 0.465v-6.977h5.403zM16.068 17.002h5.998c-0.023 1.893-0.188 3.542-0.422 5.012h-5.576v-5.012zM22.072 16h-6.004v-5.012h5.586c0.235 1.469 0.393 3.126 0.418 5.012zM23.070 17.002h5.926c-0.066 1.787-0.506 3.468-1.197 5.012h-5.152c0.234-1.471 0.398-3.119 0.423-5.012zM27.318 23.016c-1.521 2.766-3.967 4.949-6.947 6.1 0.715-1.276 1.561-3.266 2.113-6.1h4.834z"></path>
</symbol>
<symbol id="icon-globe1" viewBox="0 0 32 32">
<path d="M15.5 2c-8.008 0-14.5 6.492-14.5 14.5s6.492 14.5 14.5 14.5 14.5-6.492 14.5-14.5-6.492-14.5-14.5-14.5zM10.752 3.854c-0.714 1.289-1.559 3.295-2.113 6.131h-4.983c1.551-2.799 4.062-4.993 7.096-6.131zM3.154 10.987h5.316c-0.234 1.468-0.391 3.128-0.415 5.012h-6.060c0.067-1.781 0.468-3.474 1.159-5.012zM1.988 17.001h6.072c0.023 1.893 0.188 3.541 0.422 5.012h-5.29c-0.694-1.543-1.138-3.224-1.204-5.012zM3.67 23.015h4.977c0.559 2.864 1.416 4.867 2.134 6.142-3.046-1.134-5.557-3.336-7.111-6.142zM15.062 30.009c-1.052-0.033-2.067-0.199-3.045-0.46-0.755-1.236-1.736-3.363-2.356-6.534h5.401v6.994zM15.062 22.013h-5.578c-0.234-1.469-0.396-3.119-0.421-5.012h5.998v5.012zM15.062 15.999h-6.004c0.025-1.886 0.183-3.543 0.417-5.012h5.587v5.012zM15.062 9.985h-5.422c0.615-3.148 1.591-5.266 2.344-6.525 0.987-0.266 2.015-0.435 3.078-0.47v6.995zM29.003 15.999h-5.933c-0.025-1.884-0.182-3.544-0.416-5.012h5.172c0.693 1.541 1.108 3.23 1.177 5.012zM27.322 9.985h-4.837c-0.549-2.806-1.382-4.8-2.091-6.090 2.967 1.154 5.402 3.335 6.928 6.090zM16.063 2.989c1.067 0.047 2.102 0.216 3.092 0.493 0.751 1.263 1.72 3.372 2.331 6.503h-5.423v-6.996zM16.063 10.987h5.587c0.234 1.469 0.392 3.126 0.417 5.012h-6.004v-5.012zM16.063 17.001h5.998c-0.023 1.893-0.187 3.543-0.421 5.012h-5.577v-5.012zM16.063 29.991v-6.977h5.402c-0.617 3.152-1.591 5.271-2.343 6.512-0.978 0.272-2.005 0.418-3.059 0.465zM20.367 29.114c0.714-1.276 1.56-3.266 2.112-6.1h4.835c-1.522 2.766-3.967 4.95-6.947 6.1zM27.795 22.013h-5.152c0.234-1.471 0.398-3.119 0.423-5.012h5.927c-0.067 1.787-0.508 3.468-1.198 5.012z"></path>
</symbol>
<symbol id="icon-navigation" viewBox="0 0 33 32">
<path d="M31.625 13.938c-0.508 0-1.731 0.563-2.603 1h-1.985c-0.12-2.543-1.141-4.845-2.755-6.6l1.312-1.313c0.932-0.305 2.302-0.799 2.679-1.176 0.586-0.586 0.586-1.536 0-2.122s-1.535-0.585-2.121 0c-0.359 0.359-0.826 1.624-1.133 2.548l-1.403 1.402c-1.763-1.605-4.070-2.612-6.616-2.718v-1.857c0.442-0.875 1.062-2.194 1.062-2.727 0-0.828-0.672-1.5-1.5-1.5s-1.5 0.672-1.5 1.5c0 0.508 0.563 1.731 1 2.603v1.985c-2.543 0.12-4.846 1.14-6.601 2.755l-1.312-1.313c-0.305-0.932-0.8-2.303-1.177-2.68-0.585-0.585-1.535-0.585-2.121 0s-0.586 1.536 0 2.122c0.359 0.36 1.623 0.826 2.547 1.133l1.403 1.403c-1.591 1.749-2.594 4.033-2.713 6.554h-1.985c-0.871-0.437-2.094-1-2.603-1-0.829 0-1.5 0.672-1.5 1.5s0.671 1.5 1.5 1.5c0.533 0 1.852-0.62 2.727-1.062h1.858c0.105 2.546 1.113 4.853 2.717 6.616l-1.402 1.403c-0.925 0.307-2.188 0.773-2.548 1.133-0.586 0.586-0.586 1.536 0 2.121 0.586 0.586 1.536 0.586 2.121 0 0.377-0.376 0.871-1.746 1.177-2.678l1.313-1.313c1.755 1.614 4.057 2.635 6.6 2.755v1.985c-0.437 0.871-1 2.095-1 2.603 0 0.828 0.672 1.5 1.5 1.5s1.5-0.672 1.5-1.5c0-0.533-0.62-1.852-1.062-2.727v-1.858c2.546-0.104 4.853-1.112 6.616-2.716l1.403 1.402c0.307 0.924 0.773 2.188 1.133 2.547 0.586 0.586 1.535 0.586 2.121 0s0.586-1.535 0-2.121c-0.377-0.377-1.747-0.871-2.679-1.177l-1.312-1.312c1.628-1.77 2.652-4.095 2.758-6.663h1.858c0.875 0.443 2.193 1.062 2.727 1.062 0.828 0 1.5-0.672 1.5-1.5s-0.673-1.499-1.501-1.499zM10.215 9.798l3.552 3.552c-0.342 0.457-0.569 0.997-0.655 1.587h-5.024c0.115-1.969 0.896-3.755 2.127-5.139zM8.084 15.875h5.022c0.078 0.615 0.308 1.178 0.662 1.65l-3.553 3.552c-1.243-1.398-2.028-3.208-2.131-5.202zM16.062 23.912c-1.992-0.116-3.795-0.914-5.186-2.17l3.55-3.55c0.467 0.362 1.023 0.606 1.636 0.694v5.026zM16.062 11.988c-0.613 0.088-1.169 0.333-1.636 0.695l-3.55-3.55c1.391-1.255 3.194-2.054 5.186-2.17v5.025zM25.037 14.938h-5.025c-0.088-0.612-0.332-1.169-0.694-1.636l3.55-3.55c1.255 1.39 2.053 3.194 2.169 5.186zM22.202 9.090l-3.552 3.553c-0.473-0.354-1.035-0.584-1.65-0.662v-5.022c1.994 0.103 3.804 0.888 5.202 2.131zM17 23.915v-5.021c0.615-0.078 1.178-0.308 1.65-0.661l3.552 3.552c-1.398 1.243-3.208 2.028-5.202 2.13zM22.867 21.123l-3.55-3.55c0.375-0.482 0.621-1.062 0.701-1.698h5.021c-0.101 2.017-0.903 3.844-2.172 5.248z"></path>
</symbol>
<symbol id="icon-star-empty" viewBox="0 0 32 32">
<path d="M32 12.408l-11.056-1.607-4.944-10.018-4.944 10.018-11.056 1.607 8 7.798-1.889 11.011 9.889-5.199 9.889 5.199-1.889-11.011 8-7.798zM16 23.547l-6.983 3.671 1.334-7.776-5.65-5.507 7.808-1.134 3.492-7.075 3.492 7.075 7.807 1.134-5.65 5.507 1.334 7.776-6.983-3.671z"></path>
</symbol>
<symbol id="icon-star-half" viewBox="0 0 32 32">
<path d="M32 12.408l-11.056-1.607-4.944-10.018-4.944 10.018-11.056 1.607 8 7.798-1.889 11.011 9.889-5.199 9.889 5.199-1.889-11.011 8-7.798zM16 23.547l-0.029 0.015 0.029-17.837 3.492 7.075 7.807 1.134-5.65 5.507 1.334 7.776-6.983-3.671z"></path>
</symbol>
<symbol id="icon-star-full" viewBox="0 0 32 32">
<path d="M32 12.408l-11.056-1.607-4.944-10.018-4.944 10.018-11.056 1.607 8 7.798-1.889 11.011 9.889-5.199 9.889 5.199-1.889-11.011 8-7.798z"></path>
</symbol>
<symbol id="icon-facebook" viewBox="0 0 32 32">
<path d="M19 6h5v-6h-5c-3.86 0-7 3.14-7 7v3h-4v6h4v16h6v-16h5l1-6h-6v-3c0-0.542 0.458-1 1-1z"></path>
</symbol>
<symbol id="icon-instagram" viewBox="0 0 32 32">
<path d="M16 2.881c4.275 0 4.781 0.019 6.462 0.094 1.563 0.069 2.406 0.331 2.969 0.55 0.744 0.288 1.281 0.638 1.837 1.194 0.563 0.563 0.906 1.094 1.2 1.838 0.219 0.563 0.481 1.412 0.55 2.969 0.075 1.688 0.094 2.194 0.094 6.463s-0.019 4.781-0.094 6.463c-0.069 1.563-0.331 2.406-0.55 2.969-0.288 0.744-0.637 1.281-1.194 1.837-0.563 0.563-1.094 0.906-1.837 1.2-0.563 0.219-1.413 0.481-2.969 0.55-1.688 0.075-2.194 0.094-6.463 0.094s-4.781-0.019-6.463-0.094c-1.563-0.069-2.406-0.331-2.969-0.55-0.744-0.288-1.281-0.637-1.838-1.194-0.563-0.563-0.906-1.094-1.2-1.837-0.219-0.563-0.481-1.413-0.55-2.969-0.075-1.688-0.094-2.194-0.094-6.463s0.019-4.781 0.094-6.463c0.069-1.563 0.331-2.406 0.55-2.969 0.288-0.744 0.638-1.281 1.194-1.838 0.563-0.563 1.094-0.906 1.838-1.2 0.563-0.219 1.412-0.481 2.969-0.55 1.681-0.075 2.188-0.094 6.463-0.094zM16 0c-4.344 0-4.887 0.019-6.594 0.094-1.7 0.075-2.869 0.35-3.881 0.744-1.056 0.412-1.95 0.956-2.837 1.85-0.894 0.888-1.438 1.781-1.85 2.831-0.394 1.019-0.669 2.181-0.744 3.881-0.075 1.713-0.094 2.256-0.094 6.6s0.019 4.887 0.094 6.594c0.075 1.7 0.35 2.869 0.744 3.881 0.413 1.056 0.956 1.95 1.85 2.837 0.887 0.887 1.781 1.438 2.831 1.844 1.019 0.394 2.181 0.669 3.881 0.744 1.706 0.075 2.25 0.094 6.594 0.094s4.888-0.019 6.594-0.094c1.7-0.075 2.869-0.35 3.881-0.744 1.050-0.406 1.944-0.956 2.831-1.844s1.438-1.781 1.844-2.831c0.394-1.019 0.669-2.181 0.744-3.881 0.075-1.706 0.094-2.25 0.094-6.594s-0.019-4.887-0.094-6.594c-0.075-1.7-0.35-2.869-0.744-3.881-0.394-1.063-0.938-1.956-1.831-2.844-0.887-0.887-1.781-1.438-2.831-1.844-1.019-0.394-2.181-0.669-3.881-0.744-1.712-0.081-2.256-0.1-6.6-0.1v0z"></path>
<path d="M16 7.781c-4.537 0-8.219 3.681-8.219 8.219s3.681 8.219 8.219 8.219 8.219-3.681 8.219-8.219c0-4.537-3.681-8.219-8.219-8.219zM16 21.331c-2.944 0-5.331-2.387-5.331-5.331s2.387-5.331 5.331-5.331c2.944 0 5.331 2.387 5.331 5.331s-2.387 5.331-5.331 5.331z"></path>
<path d="M26.462 7.456c0 1.060-0.859 1.919-1.919 1.919s-1.919-0.859-1.919-1.919c0-1.060 0.859-1.919 1.919-1.919s1.919 0.859 1.919 1.919z"></path>
</symbol>
<symbol id="icon-whatsapp" viewBox="0 0 32 32">
<path d="M27.281 4.65c-2.994-3-6.975-4.65-11.219-4.65-8.738 0-15.85 7.112-15.85 15.856 0 2.794 0.731 5.525 2.119 7.925l-2.25 8.219 8.406-2.206c2.319 1.262 4.925 1.931 7.575 1.931h0.006c0 0 0 0 0 0 8.738 0 15.856-7.113 15.856-15.856 0-4.238-1.65-8.219-4.644-11.219zM16.069 29.050v0c-2.369 0-4.688-0.637-6.713-1.837l-0.481-0.288-4.987 1.306 1.331-4.863-0.313-0.5c-1.325-2.094-2.019-4.519-2.019-7.012 0-7.269 5.912-13.181 13.188-13.181 3.519 0 6.831 1.375 9.319 3.862 2.488 2.494 3.856 5.8 3.856 9.325-0.006 7.275-5.919 13.188-13.181 13.188zM23.294 19.175c-0.394-0.2-2.344-1.156-2.706-1.288s-0.625-0.2-0.894 0.2c-0.262 0.394-1.025 1.288-1.256 1.556-0.231 0.262-0.462 0.3-0.856 0.1s-1.675-0.619-3.188-1.969c-1.175-1.050-1.975-2.35-2.206-2.744s-0.025-0.613 0.175-0.806c0.181-0.175 0.394-0.463 0.594-0.694s0.262-0.394 0.394-0.662c0.131-0.262 0.069-0.494-0.031-0.694s-0.894-2.15-1.219-2.944c-0.319-0.775-0.65-0.669-0.894-0.681-0.231-0.012-0.494-0.012-0.756-0.012s-0.694 0.1-1.056 0.494c-0.363 0.394-1.387 1.356-1.387 3.306s1.419 3.831 1.619 4.1c0.2 0.262 2.794 4.269 6.769 5.981 0.944 0.406 1.681 0.65 2.256 0.837 0.95 0.3 1.813 0.256 2.494 0.156 0.762-0.113 2.344-0.956 2.675-1.881s0.331-1.719 0.231-1.881c-0.094-0.175-0.356-0.275-0.756-0.475z"></path>
</symbol>
<symbol id="icon-telegram" viewBox="0 0 32 32">
<path d="M16 0c-8.838 0-16 7.162-16 16s7.162 16 16 16 16-7.163 16-16-7.163-16-16-16zM23.863 10.969l-2.625 12.369c-0.181 0.881-0.712 1.087-1.45 0.681l-4-2.956-1.919 1.869c-0.225 0.219-0.4 0.4-0.8 0.4-0.519 0-0.431-0.194-0.606-0.688l-1.363-4.475-3.956-1.231c-0.856-0.262-0.862-0.85 0.194-1.269l15.412-5.95c0.7-0.319 1.381 0.169 1.113 1.25z"></path>
</symbol>
<symbol id="icon-twitter" viewBox="0 0 32 32">
<path d="M32 7.075c-1.175 0.525-2.444 0.875-3.769 1.031 1.356-0.813 2.394-2.1 2.887-3.631-1.269 0.75-2.675 1.3-4.169 1.594-1.2-1.275-2.906-2.069-4.794-2.069-3.625 0-6.563 2.938-6.563 6.563 0 0.512 0.056 1.012 0.169 1.494-5.456-0.275-10.294-2.888-13.531-6.862-0.563 0.969-0.887 2.1-0.887 3.3 0 2.275 1.156 4.287 2.919 5.463-1.075-0.031-2.087-0.331-2.975-0.819 0 0.025 0 0.056 0 0.081 0 3.181 2.263 5.838 5.269 6.437-0.55 0.15-1.131 0.231-1.731 0.231-0.425 0-0.831-0.044-1.237-0.119 0.838 2.606 3.263 4.506 6.131 4.563-2.25 1.762-5.075 2.813-8.156 2.813-0.531 0-1.050-0.031-1.569-0.094 2.913 1.869 6.362 2.95 10.069 2.95 12.075 0 18.681-10.006 18.681-18.681 0-0.287-0.006-0.569-0.019-0.85 1.281-0.919 2.394-2.075 3.275-3.394z"></path>
</symbol>
<symbol id="icon-youtube2" viewBox="0 0 80 32">
<path d="M10.75 5.294c0.007-0.027 0.011-0.046 0.012-0.056l0.033-0.236-1.48-0.008c-1.337-0.008-1.746 0-1.783 0.034-0.018 0.016-0.479 1.77-1.302 4.946-0.392 1.515-0.723 2.725-0.734 2.689s-0.481-1.766-1.044-3.843c-0.563-2.078-1.034-3.789-1.048-3.803-0.019-0.019-1.812-0.028-3.263-0.016-0.21 0.002-0.327-0.41 1.876 6.598 0.305 0.97 0.762 2.344 1.015 3.052 0.292 0.817 0.5 1.448 0.642 1.974 0.251 1.002 0.26 1.63 0.205 2.363-0.063 0.847-0.073 6.826-0.011 6.926 0.047 0.077 2.851 0.112 3.116 0.040 0.042-0.012 0.071-0.053 0.090-0.279 0.066-0.194 0.071-0.968 0.071-4.18v-4.103l0.179-0.566c0.117-0.37 0.413-1.344 0.656-2.163s0.538-1.801 0.654-2.18c1.057-3.447 2.067-6.838 2.094-7.032l0.022-0.158z"></path>
<path d="M26.441 10.27l-0.001 0.214-0.033 0-0.019 5.906-0.018 5.726-0.458 0.467c-0.513 0.522-0.925 0.722-1.297 0.629-0.405-0.102-0.395 0.056-0.429-6.712l-0.031-6.23h-2.947v0.214h-0.034v6.759c0 7.242-0 7.237 0.367 7.965 0.293 0.579 0.719 0.861 1.45 0.958h0c0.962 0.128 2-0.308 2.962-1.244l0.418-0.407v0.701c0 0.606 0.017 0.706 0.127 0.737 0.18 0.050 2.412 0.053 2.653 0.004l0.2-0.041v-0.207l0.034-0.007v-15.472l-2.944 0.039z"></path>
<path d="M18.965 13.323c-0.279-1.198-0.802-2.004-1.664-2.561-1.353-0.875-2.897-0.967-4.331-0.259-1.045 0.516-1.717 1.372-2.065 2.628-0.041 0.15-0.072 0.275-0.095 0.463-0.088 0.443-0.099 1.105-0.122 4.186-0.035 4.748 0.019 5.313 0.614 6.391 0.583 1.058 1.794 1.833 3.112 1.993 0.397 0.048 1.201-0.027 1.663-0.155 1.051-0.291 2.058-1.122 2.504-2.065 0.192-0.407 0.309-0.691 0.379-1.208 0.13-0.707 0.14-1.849 0.14-4.762-0-3.715-0.012-4.121-0.136-4.651zM15.604 23c-0.247 0.188-0.679 0.27-1.031 0.195-0.271-0.058-0.636-0.482-0.748-0.869-0.14-0.482-0.151-7.187-0.030-8.502 0.199-0.658 0.756-1.002 1.364-0.838 0.474 0.128 0.716 0.424 0.854 1.046 0.103 0.461 0.115 1.035 0.093 4.414-0.014 2.241-0.022 3.336-0.096 3.924-0.074 0.371-0.197 0.47-0.407 0.63z"></path>
<path d="M71.887 16.692h1.424l-0.023-1.29c-0.022-1.183-0.039-1.319-0.198-1.64-0.249-0.507-0.617-0.731-1.201-0.731-0.701 0-1.146 0.339-1.356 1.036-0.089 0.296-0.183 2.334-0.116 2.51 0.038 0.098 0.241 0.116 1.469 0.116z"></path>
<path d="M62.369 13.757c-0.19-0.383-0.543-0.571-0.954-0.556-0.319 0.011-0.674 0.146-1.015 0.407l-0.254 0.193v9.269l0.254 0.193c0.576 0.439 1.209 0.532 1.644 0.241 0.172-0.115 0.285-0.274 0.372-0.527 0.114-0.329 0.124-0.75 0.109-4.649-0.015-4.064-0.024-4.303-0.157-4.57z"></path>
<path d="M80.027 9.582c-0.284-3.401-0.509-4.505-1.211-5.923-0.929-1.878-2.272-2.868-4.184-3.086-1.478-0.168-7.041-0.405-12.189-0.52-8.912-0.198-23.564 0.183-25.436 0.662-0.865 0.221-1.513 0.597-2.188 1.269-1.183 1.177-1.887 2.865-2.17 5.2-0.647 5.331-0.66 11.773-0.037 17.297 0.268 2.376 0.82 3.92 1.857 5.192 0.647 0.794 1.761 1.469 2.758 1.67 0.7 0.141 4.201 0.337 9.3 0.521 0.76 0.027 2.771 0.074 4.47 0.105 3.541 0.063 10.051 0.026 13.772-0.079 2.504-0.070 7.069-0.255 7.922-0.321 0.24-0.019 0.796-0.054 1.236-0.079 1.477-0.083 2.417-0.393 3.3-1.086 1.142-0.897 2.027-2.556 2.4-4.501 0.354-1.84 0.59-5.118 0.638-8.839 0.040-3.109-0.013-4.787-0.238-7.482zM44.54 8.35l-1.656 0.020-0.073 17.661-1.435 0.018c-1.11 0.015-1.447-0.001-1.474-0.073-0.019-0.051-0.042-4.032-0.052-8.849l-0.018-8.758-3.234-0.041v-2.76l9.557 0.039 0.041 2.721-1.656 0.020zM54.694 18.472v7.595h-2.616v-0.799c0-0.601-0.023-0.799-0.093-0.799-0.051 0-0.288 0.198-0.527 0.441-0.517 0.526-1.13 0.949-1.653 1.145-1.083 0.405-2.112 0.169-2.551-0.586-0.401-0.691-0.409-0.845-0.409-8.010v-6.58h2.614l0.020 6.196c0.019 6.088 0.022 6.2 0.168 6.448 0.193 0.329 0.488 0.417 0.956 0.288 0.276-0.076 0.464-0.21 0.911-0.654l0.563-0.561v-11.717h2.616v7.595zM64.899 24.982c-0.23 0.513-0.744 1.016-1.165 1.14-1.099 0.324-1.98 0.060-2.998-0.897-0.316-0.297-0.61-0.538-0.654-0.538-0.053 0-0.082 0.233-0.082 0.69v0.69h-2.616v-20.495h2.616v3.343c0 1.839 0.025 3.343 0.054 3.343s0.306-0.244 0.613-0.541c0.707-0.683 1.298-0.981 2.049-1.038 1.338-0.101 2.135 0.587 2.501 2.16 0.114 0.491 0.125 1.051 0.125 5.596-0 5.537-0.001 5.56-0.443 6.546zM75.968 21.943c-0.023 0.57-0.092 1.223-0.154 1.454-0.364 1.349-1.332 2.304-2.732 2.696-1.885 0.527-3.96-0.337-4.788-1.994-0.465-0.93-0.481-1.116-0.481-5.662 0-3.707 0.013-4.162 0.132-4.667 0.336-1.431 1.168-2.357 2.578-2.871 0.408-0.149 0.835-0.225 1.261-0.234 1.521-0.031 3.031 0.787 3.663 2.119 0.427 0.899 0.48 1.283 0.522 3.816l0.039 2.271-5.578 0.039-0.020 1.526c-0.029 2.153 0.116 2.815 0.697 3.207 0.489 0.329 1.24 0.305 1.649-0.055 0.383-0.337 0.491-0.698 0.529-1.753l0.034-0.927h2.694l-0.043 1.036z"></path>
</symbol>
</defs>
</svg>
